<svg width="256" height="256" viewBox="0 0 256 256" fill="none" xmlns="http://www.w3.org/2000/svg">
  <defs>
    <linearGradient id="qaryaGradient" x1="28" y1="24" x2="224" y2="232" gradientUnits="userSpaceOnUse">
      <stop stop-color="#0F766E"/>
      <stop offset="0.55" stop-color="#14B8A6"/>
      <stop offset="1" stop-color="#F97316"/>
    </linearGradient>
    <linearGradient id="glowGradient" x1="56" y1="36" x2="188" y2="196" gradientUnits="userSpaceOnUse">
      <stop stop-color="#FDE68A" stop-opacity="0.9"/>
      <stop offset="1" stop-color="#FFFFFF" stop-opacity="0"/>
    </linearGradient>
  </defs>
  <rect x="20" y="20" width="216" height="216" rx="54" fill="url(#qaryaGradient)"/>
  <circle cx="172" cy="74" r="54" fill="url(#glowGradient)"/>
  <path d="M73 72C93.4 72 108.7 78 119 90V188C109.4 180.1 94.7 176.2 76.6 176.2H58V92C58 80.95 66.95 72 78 72H73Z" fill="white" fill-opacity="0.95"/>
  <path d="M183 72C162.6 72 147.3 78 137 90V188C146.6 180.1 161.3 176.2 179.4 176.2H198V92C198 80.95 189.05 72 178 72H183Z" fill="white" fill-opacity="0.95"/>
  <path d="M128 96V193" stroke="#0F172A" stroke-opacity="0.18" stroke-width="8" stroke-linecap="round"/>
  <path d="M84 106H108" stroke="#0F766E" stroke-width="7" stroke-linecap="round"/>
  <path d="M148 106H172" stroke="#F97316" stroke-width="7" stroke-linecap="round"/>
  <path d="M84 132H108" stroke="#0F766E" stroke-width="7" stroke-linecap="round" opacity="0.72"/>
  <path d="M148 132H172" stroke="#F97316" stroke-width="7" stroke-linecap="round" opacity="0.72"/>
</svg>
